<mxfile host="app.diagrams.net" modified="2021-10-15T14:57:10.296Z" agent="5.0 (Macintosh; Intel Mac OS X 10_15_7) AppleWebKit/537.36 (KHTML, like Gecko) Chrome/94.0.4606.71 Safari/537.36 Edg/94.0.992.38" etag="OadS8l1qsq_OtT63wEn_" version="14.9.2" type="github">
  <diagram id="1Em_LqEshnBASUUWgrJW" name="Page-1">
    <mxGraphModel dx="1250" dy="705" grid="1" gridSize="10" guides="1" tooltips="1" connect="1" arrows="1" fold="1" page="1" pageScale="1" pageWidth="850" pageHeight="1100" math="0" shadow="0">
      <root>
        <mxCell id="0" />
        <mxCell id="1" parent="0" />
        <mxCell id="jhb1nyjk5O2_t-jKmljv-1" value="common-&lt;span&gt;module&amp;nbsp;&lt;/span&gt;(event , redis,mq, metric)" style="rounded=0;whiteSpace=wrap;html=1;fillColor=#1ba1e2;strokeColor=#006EAF;fontColor=#FFFFFF;" vertex="1" parent="1">
          <mxGeometry x="160" y="380" width="480" height="60" as="geometry" />
        </mxCell>
        <mxCell id="jhb1nyjk5O2_t-jKmljv-2" value="platform-repository-module" style="rounded=0;whiteSpace=wrap;html=1;fillColor=#f0a30a;strokeColor=#BD7000;fontColor=#FFFFFF;" vertex="1" parent="1">
          <mxGeometry x="160" y="320" width="240" height="60" as="geometry" />
        </mxCell>
        <mxCell id="jhb1nyjk5O2_t-jKmljv-3" value="enterprise-repository-module" style="rounded=0;whiteSpace=wrap;html=1;fillColor=#60a917;strokeColor=#2D7600;fontColor=#ffffff;" vertex="1" parent="1">
          <mxGeometry x="400" y="320" width="240" height="60" as="geometry" />
        </mxCell>
        <mxCell id="jhb1nyjk5O2_t-jKmljv-4" value="statistic-server" style="rounded=0;whiteSpace=wrap;html=1;gradientColor=#ffd966;fillColor=#fff2cc;strokeColor=#d6b656;" vertex="1" parent="1">
          <mxGeometry x="160" y="260" width="80" height="60" as="geometry" />
        </mxCell>
        <mxCell id="jhb1nyjk5O2_t-jKmljv-5" value="platform-server" style="rounded=0;whiteSpace=wrap;html=1;gradientColor=#ffd966;fillColor=#fff2cc;strokeColor=#d6b656;" vertex="1" parent="1">
          <mxGeometry x="240" y="260" width="80" height="60" as="geometry" />
        </mxCell>
        <mxCell id="jhb1nyjk5O2_t-jKmljv-6" value="datareport-server" style="rounded=0;whiteSpace=wrap;html=1;gradientColor=#ffd966;fillColor=#fff2cc;strokeColor=#d6b656;" vertex="1" parent="1">
          <mxGeometry x="320" y="260" width="80" height="60" as="geometry" />
        </mxCell>
        <mxCell id="jhb1nyjk5O2_t-jKmljv-7" value="thirdpartydata-server" style="rounded=0;whiteSpace=wrap;html=1;fillColor=#d5e8d4;strokeColor=#82b366;" vertex="1" parent="1">
          <mxGeometry x="400" y="260" width="80" height="60" as="geometry" />
        </mxCell>
        <mxCell id="jhb1nyjk5O2_t-jKmljv-8" value="enterprise-server" style="rounded=0;whiteSpace=wrap;html=1;fillColor=#d5e8d4;strokeColor=#82b366;" vertex="1" parent="1">
          <mxGeometry x="480" y="260" width="80" height="60" as="geometry" />
        </mxCell>
        <mxCell id="jhb1nyjk5O2_t-jKmljv-9" value="&lt;span&gt;statistic-server&lt;/span&gt;" style="rounded=0;whiteSpace=wrap;html=1;fillColor=#d5e8d4;strokeColor=#82b366;" vertex="1" parent="1">
          <mxGeometry x="560" y="260" width="80" height="60" as="geometry" />
        </mxCell>
      </root>
    </mxGraphModel>
  </diagram>
</mxfile>
